<svg width="1400" height="420" viewBox="0 0 1400 420" fill="none" xmlns="http://www.w3.org/2000/svg">
  <defs>
    <linearGradient id="bg" x1="0" y1="0" x2="1400" y2="420" gradientUnits="userSpaceOnUse">
      <stop stop-color="#0A0A0A"/>
      <stop offset="0.52" stop-color="#17120B"/>
      <stop offset="1" stop-color="#090909"/>
    </linearGradient>
    <linearGradient id="gold" x1="120" y1="84" x2="1270" y2="340" gradientUnits="userSpaceOnUse">
      <stop stop-color="#F7C96B"/>
      <stop offset="1" stop-color="#E89A2F"/>
    </linearGradient>
    <filter id="glow" x="0" y="0" width="1400" height="420" filterUnits="userSpaceOnUse" color-interpolation-filters="sRGB">
      <feGaussianBlur stdDeviation="48" result="blur"/>
      <feBlend in="SourceGraphic" in2="blur" mode="screen"/>
    </filter>
  </defs>
  <rect width="1400" height="420" rx="28" fill="url(#bg)"/>
  <circle cx="230" cy="78" r="170" fill="#F7C96B" opacity="0.08" filter="url(#glow)"/>
  <circle cx="1210" cy="320" r="210" fill="#E89A2F" opacity="0.09" filter="url(#glow)"/>
  <rect x="36" y="36" width="1328" height="348" rx="22" stroke="rgba(247,201,107,0.25)"/>
  <text x="82" y="124" fill="#FFFFFF" font-family="Segoe UI, Arial, sans-serif" font-size="24" font-weight="700" letter-spacing="2">SHAHID RESTRO</text>
  <text x="82" y="186" fill="url(#gold)" font-family="Segoe UI, Arial, sans-serif" font-size="70" font-weight="800">Restaurant Dashboard</text>
  <text x="82" y="234" fill="#D6D6D6" font-family="Segoe UI, Arial, sans-serif" font-size="24" font-weight="500">Live menu browsing, smart filtering, cart flow, and token-based ordering.</text>
  <g opacity="0.95">
    <rect x="900" y="86" width="370" height="214" rx="18" fill="#111111" stroke="#342D20"/>
    <rect x="928" y="112" width="116" height="22" rx="8" fill="#F7C96B"/>
    <rect x="1052" y="112" width="170" height="22" rx="8" fill="#232323"/>
    <rect x="928" y="154" width="314" height="54" rx="12" fill="#1A1A1A" stroke="#3B3426"/>
    <rect x="946" y="172" width="136" height="12" rx="6" fill="#EDEDED"/>
    <rect x="1094" y="172" width="112" height="12" rx="6" fill="#F7C96B" opacity="0.9"/>
    <rect x="928" y="220" width="314" height="54" rx="12" fill="#1A1A1A" stroke="#3B3426"/>
    <rect x="946" y="238" width="112" height="12" rx="6" fill="#EDEDED"/>
    <rect x="1072" y="232" width="90" height="26" rx="10" fill="#E89A2F"/>
  </g>
</svg>
